<svg id="visual" viewBox="0 0 900 600" width="900" height="600" xmlns="http://www.w3.org/2000/svg" xmlns:xlink="http://www.w3.org/1999/xlink" version="1.1"><rect x="0" y="0" width="900" height="600" fill="#eef5f8"></rect><path d="M0 534L15 544.2C30 554.3 60 574.7 90 568.5C120 562.3 150 529.7 180 526.5C210 523.3 240 549.7 270 528C300 506.3 330 436.7 360 403.7C390 370.7 420 374.3 450 405.7C480 437 510 496 540 475.5C570 455 600 355 630 334.3C660 313.7 690 372.3 720 388.3C750 404.3 780 377.7 810 397.7C840 417.7 870 484.3 885 517.7L900 551L900 601L885 601C870 601 840 601 810 601C780 601 750 601 720 601C690 601 660 601 630 601C600 601 570 601 540 601C510 601 480 601 450 601C420 601 390 601 360 601C330 601 300 601 270 601C240 601 210 601 180 601C150 601 120 601 90 601C60 601 30 601 15 601L0 601Z" fill="#8851d9" stroke-linecap="round" stroke-linejoin="miter"></path></svg>